# xmcd
#
# Track frame offsets: 
#        150
#        21625
#        41007
#        62785
#        111550
#        125532
#        144115
#        165330
#        189180
#        222582
#
# Disc length: 3228 seconds
#
# Revision: 0
# Processed by: cddbd v1.5.2PL0 Copyright (c) Steve Scherf et al.
# Submitted via: ExactAudioCopy v0.95a5
#
DISCID=920c9a0a
DTITLE=Various Artist - 笛子
DYEAR=1999
DGENRE=Folk
TTITLE0=姑苏行
TTITLE1=小放牛
TTITLE2=早晨
TTITLE3=秋湖月夜
TTITLE4=喜相逢
TTITLE5=荫中鸟
TTITLE6=三五七
TTITLE7=百鸟引
TTITLE8=鹧鸪飞
TTITLE9=帕米尔的春天
EXTD=
EXTT0=
EXTT1=
EXTT2=
EXTT3=
EXTT4=
EXTT5=
EXTT6=
EXTT7=
EXTT8=
EXTT9=
PLAYORDER=
